<svg width="371" height="50" viewBox="0 0 371 50" xmlns="http://www.w3.org/2000/svg"><title>Белэксимгарант лого</title><g fill="none" fill-rule="evenodd"><path d="M47.837.015h.002v.002c12.045 0 22.958 2.772 30.863 7.253 7.972 4.519 12.905 10.784 12.905 17.724h.002v.002h-.002c0 6.94-4.933 13.206-12.906 17.725-7.904 4.48-18.816 7.252-30.86 7.252v.002h-.005v-.002c-12.046 0-22.959-2.771-30.863-7.252C9 38.201 4.068 31.936 4.067 24.996h-.001v-.001h.001c0-6.94 4.933-13.206 12.906-17.725C24.877 2.79 35.79.018 47.834.017V.015h.003zm.002.788v.002h-.005V.803c-11.903 0-22.676 2.734-30.47 7.151C9.64 12.334 4.86 18.36 4.86 24.994h.002v.002H4.86c0 6.635 4.78 12.662 12.505 17.04 7.794 4.418 18.567 7.151 30.472 7.151v-.001h.004v.001c11.904 0 22.677-2.733 30.47-7.15 7.726-4.38 12.505-10.406 12.505-17.04h-.001v-.002h.001c0-6.635-4.78-12.662-12.504-17.04C70.517 3.537 59.743.804 47.839.803z" fill="#0C54A0" fill-rule="nonzero"/><path d="M56.435 3.689c9.674 1.204 17.985 4.444 23.44 8.88-1.642.489-3.903.955-6.653 1.377-3.712-4.242-9.04-7.529-14.45-9.492a38.672 38.672 0 0 0-2.337-.765zm24.392 9.691c3.557 3.188 5.685 6.93 5.875 10.945h-8.56c-.4-3.414-1.878-6.551-4.045-9.321 2.766-.457 5.05-1.004 6.73-1.624zm5.875 12.125c-.174 3.662-1.961 7.099-4.975 10.094-1.54-.564-3.585-1.069-6.044-1.5 1.608-2.408 2.566-5.105 2.566-8.062 0-.172-.004-.35-.011-.532h8.464zM80.846 36.43c-5.333 4.79-13.893 8.329-23.967 9.653 3.743-1.046 7.648-2.677 11.07-4.824 2.727-1.712 5.154-3.754 6.966-6.095 2.432.393 4.443.82 5.931 1.266zm-43.221 9.424c-9.501-1.492-17.527-4.973-22.568-9.594 1.62-.44 3.748-.86 6.284-1.244 1.467 1.99 3.335 3.826 5.498 5.443 3.093 2.311 6.795 4.175 10.786 5.395zM14.164 35.397c-2.893-2.948-4.604-6.312-4.774-9.892h8.421c.083 2.95 1.086 5.808 2.783 8.432-2.583.415-4.757.906-6.43 1.46zM9.39 24.325c.182-3.843 2.14-7.437 5.428-10.533 1.696.51 3.827.961 6.315 1.343a18.707 18.707 0 0 0-2.105 3.812 16.579 16.579 0 0 0-1.199 5.378H9.39zm6.412-11.412c5.25-4.45 13.337-7.75 22.808-9.086-6.284 1.816-12.667 5.305-16.66 10.234l-.306-.045c-2.292-.342-4.264-.713-5.842-1.103zM72.3 15.278c-6.307.895-14.772 1.456-24.115 1.493v7.554h28.36c-.432-3.326-1.989-6.376-4.245-9.047zm-25.308 1.495c-9.253-.008-17.687-.53-24.078-1.384-.995 1.284-1.817 2.667-2.414 4.144-.608 1.5-.986 3.1-1.084 4.792h27.576v-7.552zm-23.182-2.46c6.257.792 14.346 1.273 23.182 1.28V3.986C39.386 4.3 29.47 7.946 23.81 14.313zm24.375 1.278c8.891-.035 16.984-.55 23.16-1.375-3.476-3.66-8.258-6.52-13.114-8.282a35.074 35.074 0 0 0-5.255-1.466c-1.671-.323-3.287-.497-4.791-.507v11.63zm28.463 9.914H48.185v6.69c9.963.02 18.97.623 25.518 1.587l.244.036c1.69-2.317 2.712-4.924 2.712-7.78 0-.182-.004-.36-.011-.533zm-29.656 0h-27.59c.09 2.859 1.15 5.636 2.923 8.173 6.452-.899 15.116-1.458 24.667-1.482v-6.691zM73.1 34.889c-6.47-.921-15.24-1.494-24.915-1.514v12.49c.464-.003.935-.021 1.41-.054 5.187-.359 11.995-2.422 17.51-5.884 2.302-1.445 4.374-3.133 5.995-5.038zm-26.108-1.514c-9.168.024-17.516.544-23.855 1.386 1.287 1.607 2.86 3.101 4.652 4.44 5.137 3.84 12.038 6.389 19.087 6.646l.116.003V33.375z" fill="#0C54A0"/><path d="M48.027 6.798c1.446 0 2.853.163 4.204.474V43.25a18.75 18.75 0 0 1-4.204.475 18.77 18.77 0 0 1-4.068-.446V7.242a18.77 18.77 0 0 1 4.068-.444z" fill="#0C54A0"/><path d="M48.027 5.863h.001v.003a19.534 19.534 0 0 1 13.808 5.68c3.532 3.508 5.717 8.357 5.718 13.714h.003v.002h-.003c0 5.358-2.186 10.207-5.718 13.716a19.533 19.533 0 0 1-13.807 5.679v.003h-.002v-.003a19.533 19.533 0 0 1-13.81-5.68c-3.531-3.508-5.716-8.357-5.716-13.714h-.004v-.002h.004c0-5.358 2.185-10.207 5.717-13.716a19.534 19.534 0 0 1 13.808-5.679v-.003h.001zm.001 1.576v.003h-.002v-.003c-4.95 0-9.436 1.996-12.684 5.223-3.248 3.226-5.258 7.681-5.258 12.599h.003v.002h-.003c0 4.918 2.01 9.372 5.258 12.598a17.948 17.948 0 0 0 12.684 5.223v-.003h.003v.003c4.95 0 9.435-1.996 12.683-5.222 3.248-3.227 5.258-7.682 5.258-12.6h-.003v-.002h.003c0-4.917-2.01-9.372-5.258-12.598a17.946 17.946 0 0 0-12.684-5.223z" fill="#FEFEFE" fill-rule="nonzero"/><ellipse fill="#FEFEFE" cx="48.027" cy="25.261" rx="16.375" ry="16.265"/><path d="M36.877 25.123a19.833 19.833 0 0 1 4.67.094l4.224-6.895a22.429 22.429 0 0 1-3.31-.952l2.462-3.818c1.99 1.254 6.718 1.51 13.511 1.014l-1.506.83c.466 6.622-.68 13.244-4.697 19.867l-2.083.716c2.662-4.526 4.486-9.926 3.783-17.953-2.28.675-4.558.814-6.838.517l-4.242 6.886c2.743.522 5.541 1.527 8.378 2.866l-2.462 8.519c-4.253-3.986-9.179-6.692-15.192-7.337l3.302-4.354z" fill="#009846"/><path fill="#0C54A0" d="M.022 24.23h4.357v1.691H.022zm91.366 0h279.606v1.691H91.388z"/><path d="M108.681 4.205v5.708h2.316c1.016 0 1.883.158 2.593.474.713.32 1.256.799 1.627 1.449.375.644.561 1.448.561 2.405 0 3.713-1.919 5.571-5.76 5.571h-4.62V2.35h9.666l-.087.551-.033.551c0 .15.008.304.014.458.012.153.048.367.103.644a28.674 28.674 0 0 0-2.695-.264 69.356 69.356 0 0 0-3.685-.085zm0 14.167l.973-.038c.127 0 .24-.009.334-.03.095-.021.212-.06.346-.107a2.635 2.635 0 0 0 1.537-1.303c.35-.64.525-1.371.525-2.188 0-.97-.211-1.773-.634-2.418-.426-.64-.929-.961-1.511-.961h-1.57v7.045zM133.516 2.35l-.105 1.102c0 .158.036.526.105 1.102a31.296 31.296 0 0 0-2.388-.264 39.404 39.404 0 0 0-2.68-.085v5.532h2.294c.67 0 1.566-.08 2.69-.239-.021.167-.046.35-.069.556-.025.205-.04.38-.04.52 0 .219.037.59.11 1.116a17.142 17.142 0 0 0-2.69-.214h-2.295v6.482c1.893 0 3.583-.116 5.068-.35l-.105 1.102.105 1.102h-8.341V2.35h8.341zm13.241.077h.212l.254-.038.226-.026.244-.039.696 2.192.618 1.927 1.45 4.392 1.376 4.085 1.718 4.969-.727-.077-.65-.051-.545-.026-.543.026-.31.013-.353.05-.713.065a69.333 69.333 0 0 0-.83-3.042 79.912 79.912 0 0 1-.459-1.568c-.102-.333-.23-.735-.386-1.213L146.98 10.8l-1.14-3.606c-1.78 5.063-3.134 9.297-4.066 12.694a6.696 6.696 0 0 0-2.025 0l1.696-4.657 1.504-4.17 1.45-4.243.724-2.204.718-2.29.382.05.535.052zm16.912 9.049c-.456 0-.91.018-1.362.052-.452.03-.892.085-1.33.162l.055-.564.055-.552-.01-.2c0-.09-.015-.2-.045-.325l-.054-.55 1.559.174 1.132.064h4.938a12.854 12.854 0 0 0-.194-1.213c-.033-.175-.08-.372-.131-.585a6.858 6.858 0 0 0-.179-.594 6.97 6.97 0 0 0-.946-1.978 4.788 4.788 0 0 0-1.526-1.415 3.972 3.972 0 0 0-2.028-.525c-.688 0-1.365.218-2.028.65a5.031 5.031 0 0 0-1.599 1.704h-.309l-.244-1.367a13.573 13.573 0 0 0-.259-1.26 7.66 7.66 0 0 1 .94-.496c.393-.18.79-.325 1.194-.432a8.578 8.578 0 0 1 2.327-.337c1.202 0 2.333.196 3.394.593 1.059.398 1.984 1 2.778 1.804.793.802 1.413 1.824 1.856 3.055.445 1.23.667 2.657.667 4.285 0 1.277-.204 2.448-.612 3.516-.411 1.069-.983 1.983-1.715 2.743a7.659 7.659 0 0 1-2.628 1.765 8.583 8.583 0 0 1-3.26.624c-1.656 0-3.102-.368-4.332-1.103l-.477-2.213.287-.15c.233.274.506.53.82.765.276.205.615.415 1.015.624.754.359 1.446.538 2.08.538 1.074 0 2.002-.303 2.789-.905.786-.607 1.383-1.466 1.795-2.581.407-1.115.611-2.371.611-3.773h-5.024zm16.842-9.126l.714.09.928.06.46-.013.553-.06.63-.077v8.024l1.911-2.615 1.886-2.666 1.879-2.743.437.077.393.06.354.012.265-.012h.215c.084-.026.146-.039.182-.047l.491-.09v.2l-1.525 1.778-1.602 1.978c-1.144 1.47-1.988 2.585-2.527 3.354l6.092 9.913v.337l-.94-.051-.918-.047-.939.052-.918.046-4.736-8.122v8.122l-.83-.051-.813-.047-.812.052-.83.046V2.35zm30.183 14.608l-.477 2.213c-1.23.735-2.673 1.103-4.322 1.103a8.641 8.641 0 0 1-3.255-.616 7.399 7.399 0 0 1-2.618-1.743c-.728-.756-1.304-1.679-1.723-2.769-.418-1.085-.63-2.26-.63-3.52 0-1.611.226-3.034.674-4.273.448-1.239 1.067-2.265 1.861-3.067a7.593 7.593 0 0 1 2.77-1.804c1.057-.397 2.193-.593 3.401-.593a8.478 8.478 0 0 1 2.324.324c.804.21 1.51.522 2.122.94l-.265 1.363-.117.701a3.436 3.436 0 0 1-.116.564h-.303a5.233 5.233 0 0 0-1.61-1.705 4.769 4.769 0 0 0-1.022-.487 3.26 3.26 0 0 0-.994-.162c-.874 0-1.635.218-2.283.658-.645.435-1.184 1.042-1.61 1.82a9.83 9.83 0 0 0-.907 2.517c-.098.482-.174.952-.221 1.401-.022.235-.04.466-.055.7-.015.236-.022.483-.022.752 0 1.445.204 2.735.609 3.876.403 1.136.997 2.02 1.78 2.645.783.628 1.722.94 2.818.94.662 0 1.35-.175 2.064-.53a5.987 5.987 0 0 0 1.84-1.397l.287.15zm6.451-14.608l.64.077.543.06.459.012.459-.012.553-.06.63-.077v12.028c.134-.176.368-.475.692-.898.564-.744 1.045-1.384 1.441-1.918a156.49 156.49 0 0 0 2.19-3.09l2.104-3.178 1.008-1.59.867-1.405h1.653V19.91l-.812-.051-.841-.047-.801.052-.82.046V7.785l-.986 1.325-.95 1.324-2.233 3.196-2.297 3.392-1.857 2.888-.681-.021-.961.021V2.35zm33.733 0l.383.09.513.06.288-.026.32-.047.35-.077.579 5.794.426 4.405c.077.82.12 1.277.131 1.371.01.099.04.295.08.594l.182 1.44.298 2.478.227 1.478-.918-.051-.918-.047-.363.026-.51.026-.878.046v-.748a2.55 2.55 0 0 1-.022-.239c0-.124-.007-.337-.03-.632a76.953 76.953 0 0 0-.12-1.372c0-.482-.02-.974-.072-1.478l-.15-1.337-.236-2.64-.31-3.444-1.165 2.764-1.3 3.094-1.252 3.119-1.132 2.811-.83.004-1.118-2.756-.663-1.623-.51-1.192-1.245-2.991-1.249-2.978c0 .025-.084.863-.255 2.517-.113 1.106-.19 1.854-.225 2.238-.085.885-.146 1.534-.179 1.953-.171 2.072-.255 3.713-.255 4.93l-.513-.046-.513-.052-.5.052-.524.046c.371-2.332.71-4.785 1.024-7.344L238.95 2.35l.342.077.288.047.266.025.27-.025.298-.047.328-.077 1.176 2.931 1.194 2.854 1.417 3.341 1.26 2.927.964-2.23 1.519-3.478 1.394-3.273.638-1.594.574-1.478zm17.192 17.56l-.812-.051-.808-.047-.833.052-.83.046V2.35h8.352l-.12 1.102.12 1.102-1.227-.174a26.02 26.02 0 0 0-.605-.064 5.534 5.534 0 0 0-.528-.026l-1.376-.039-1.333-.046V19.91zm14.114-5.332l-.539 1.795-.593 1.987-.404 1.529-.492-.038-.532-.039-.51.039-.535.038 6.252-17.765a4.493 4.493 0 0 0 1.654 0l6.102 17.786-.961-.051-.95-.047-.936.052-.918.046-.608-2.238-.514-1.778c-.141-.495-.284-.93-.426-1.316h-5.09zm4.588-1.563l-1.94-5.97-2.054 5.97h3.994zm18.043 6.895l-.83-.051-.812-.047h-.437l-.382.052-.823.046V2.35h5.377c1.508 0 2.663.363 3.467 1.094.805.73 1.206 1.811 1.206 3.234 0 1.427-.274 2.555-.823 3.38-.546.829-1.333 1.397-2.357 1.717-1.026.317-2.22.475-3.586.475v7.66zm0-9.1l.802-.039c.105-.017.21-.034.32-.055.105-.022.21-.047.32-.081.66-.201 1.15-.62 1.468-1.252.316-.633.473-1.38.473-2.24 0-1.012-.193-1.824-.583-2.447-.386-.62-.87-.932-1.445-.932h-1.355v7.046zm16.009 3.768l-.539 1.795-.593 1.987-.404 1.529-.492-.038-.532-.039-.51.039-.535.038 6.252-17.765a4.493 4.493 0 0 0 1.654 0l6.102 17.786-.961-.051-.95-.047-.936.052-.918.046-.608-2.238-.514-1.778c-.141-.495-.284-.93-.426-1.316h-5.09zm4.588-1.563l-1.94-5.97-2.054 5.97h3.994zM337.309 2.35l.64.077.543.06.459.012.459-.012.554-.06.63-.077v6.948c.2 0 .49.008.873.025.386.013.666.021.845.021l1.624.077 1.675-.09 1.664-.033V2.35l.63.077.531.06.459.012.481-.025.553-.047.62-.077v17.56l-.813-.051-.841-.047-.801.052-.819.046v-8.562h-1.665l-1.674-.098-1.41.047-1.933.051v8.562l-.83-.051-.812-.047h-.342l-.477.052-.823.046V2.35zm25.306 17.56l-.819-.051-.812-.047-.823.052-.82.046V4.166c-.582 0-1.212.03-1.885.09-.677.055-1.402.15-2.178.273l.106-1.102c0-.158-.036-.517-.106-1.077h11.252l-.066.415-.05.363-.012.299.011.324.05.377.067.401c-1.777-.243-3.084-.363-3.915-.363V19.91zm-249.087 7.933l-.106 1.103c0 .158.037.525.106 1.102-.783-.12-1.58-.205-2.389-.265a39.404 39.404 0 0 0-2.68-.085v5.533h2.294c.67 0 1.566-.081 2.691-.24-.022.168-.047.351-.07.556-.025.205-.04.38-.04.521 0 .218.038.59.11 1.116a17.142 17.142 0 0 0-2.69-.214h-2.295v6.481c1.894 0 3.583-.115 5.069-.35l-.106 1.102.106 1.103h-8.342V27.843h8.342zm12.104 3.491l-1.22 2.026-1.317 2.209.287.585 1.613 3.366 1.31 2.808.492 1.098.863 2.004-1.897-.124-.95.085-.928.039-2.88-6.533-2.018 3.691a40.335 40.335 0 0 0-1.354 2.795l-.543-.038-.546-.04-.542.04-.554.038c.83-1.355 1.664-2.743 2.494-4.17a159.06 159.06 0 0 0 2.229-3.931l-4.479-9.439h.437c.12 0 .313.018.575.052l.929.072.98-.085.957-.039.524 1.253.692 1.597.83 1.842.66 1.513 1.427-2.675a137.168 137.168 0 0 1 1.886-3.53c.342.052.695.078 1.067.078a8.14 8.14 0 0 0 1.088-.078l-2.112 3.491zm4.268-3.491h.356c.095 0 .262.018.495.052l.78.072.83-.085.811-.039V45.43l-1.641-.124-.83.085-.802.039V27.843zm19.32 0l.918.124c.15 0 .462-.038.936-.124l.513 5.234.459 4.491.447 4.055c.037.329.073.654.106.978.015.133.062.457.142.974l.255 1.855-1.813-.124-1.774.124v-.137c0-.367-.01-.705-.04-1.013l-.116-1.828-.23-2.842-.243-2.653-.306-3.465-1.18 2.816-1.296 3.102-1.249 3.08-1.122 2.816h-.83l-1.121-2.756-.66-1.624-.512-1.192-1.25-2.99-1.245-2.979c0 .026-.087.864-.258 2.517-.114 1.132-.186 1.88-.223 2.239-.087.867-.145 1.525-.181 1.965-.172 2.077-.255 3.726-.255 4.944l-1.027-.124-1.001.124c.105-.684.207-1.363.299-2.038.072-.492.18-1.3.33-2.419l.736-5.857.863-7.273.896.124c.138 0 .444-.038.917-.124.918 2.38 2.593 6.397 5.025 12.053l1.216-2.79 1.431-3.276.753-1.77.5-1.196.618-1.525.572-1.496zm19.573 16.762c-1.151.38-2.196.67-3.124.867-.933.197-1.836.295-2.71.295-1.168 0-2.279-.175-3.335-.525a7.762 7.762 0 0 1-2.789-1.615c-.804-.727-1.438-1.65-1.9-2.773-.463-1.12-.692-2.401-.692-3.837 0-2.06.39-3.807 1.168-5.247.78-1.44 1.861-2.534 3.241-3.273 1.384-.743 2.924-1.115 4.616-1.115.704 0 1.334.06 1.887.175a7.38 7.38 0 0 1 1.755.5c.55.235 1.093.53 1.628.889a10.748 10.748 0 0 0-.62 2.59h-.298c-.484-.825-1.103-1.467-1.857-1.928a4.655 4.655 0 0 0-2.454-.688c-.881 0-1.668.223-2.356.662-.663.41-1.223.992-1.682 1.748-.459.756-.805 1.628-1.045 2.615a13.51 13.51 0 0 0-.357 3.149c0 1.076.117 2.064.354 2.965.232.902.571 1.658 1.019 2.26a4.616 4.616 0 0 0 1.656 1.41c.663.333 1.402.5 2.222.5.91 0 1.71-.244 2.4-.726v-5.994h.356c.095 0 .262.016.495.05l.79.073.83-.085.802-.038v7.096zm5.987-4.533l-.539 1.794-.593 1.987-.404 1.53-.514-.038-.51-.04-.509.04-.535.038 6.251-17.766a4.5 4.5 0 0 0 1.654 0l6.102 17.813-1.879-.124-.95.085-.936.039c-.64-2.444-1.158-4.23-1.547-5.358h-5.091zm4.588-1.564l-1.94-5.969-2.054 5.97h3.994zm7.663-10.665h4.65c1.736 0 2.916.172 3.542.513 1.263.787 1.897 2.009 1.897 3.667 0 1.226-.302 2.234-.906 3.016-.605.786-1.439 1.32-2.498 1.602l1.1 2.166 1.452 2.666 1.311 2.367.855 1.59-1.988-.124-1.012.085-.961.039-2.593-5.384-.724-1.453-.703-1.388h-.15v8.225l-1.641-.124-.819.085-.812.039V27.843zm3.273 8.26l.543.025c1.926 0 2.89-1.23 2.89-3.691l-.032-.616a6.942 6.942 0 0 1-.033-.299 4.712 4.712 0 0 0-.051-.376c-.106-.781-.393-1.299-.852-1.546-.462-.244-1.067-.368-1.813-.368h-.652v6.87zm13.159 3.969l-.538 1.794-.594 1.987-.404 1.53-.514-.038-.51-.04-.509.04-.535.038 6.252-17.766a4.493 4.493 0 0 0 1.653 0l6.102 17.813-1.879-.124-.95.085-.936.039c-.64-2.444-1.158-4.23-1.547-5.358h-5.09zm4.589-1.564l-1.941-5.969-2.054 5.97h3.995zm7.883-10.665h2.167l2.166 2.731 2.421 3.029 2.56 3.243.757.974.768 1 .769 1.03V27.843c.277.052.568.078.874.078.27 0 .56-.026.873-.078V45.43l-1.856-.026-2.698-3.529-2.4-3.102-1.121-1.44-1.155-1.44-2.377-2.918v12.408l-.448-.038-.426-.04-.437.04-.437.038v-17.54zM238.35 45.43l-1.63-.124-.831.085-.812.039V29.66c-.583 0-1.213.03-1.886.09a28.82 28.82 0 0 0-2.177.273l.105-1.103c0-.158-.033-.516-.105-1.077h11.25l-.105 1.077c0 .176.032.543.106 1.103-1.777-.244-3.084-.364-3.915-.364v15.77zm37.052-17.587h5.633c1.245 0 2.279.3 3.109.893.827.599 1.242 1.59 1.242 2.974 0 .77-.16 1.445-.484 2.021a3.883 3.883 0 0 1-1.322 1.406 4.665 4.665 0 0 1-1.777.68v.226c1.052.115 1.97.495 2.757 1.14.786.641 1.179 1.671 1.179 3.09 0 1.102-.247 2.03-.743 2.785a4.538 4.538 0 0 1-1.977 1.692 6.2 6.2 0 0 1-2.57.556h-5.047V27.843zm3.273 7.538h.597c.852 0 1.493-.214 1.92-.637.626-.62.939-1.508.939-2.67 0-.919-.208-1.62-.62-2.111-.411-.487-.983-.73-1.714-.73h-.598a2.7 2.7 0 0 0-.524.076v6.072zm0 8.434h1.1c.404 0 .808-.133 1.205-.402.397-.265.725-.65.983-1.158.255-.504.383-1.102.383-1.794 0-2.41-1.035-3.615-3.106-3.615h-.565v6.969zm18.502-15.972l-.106 1.103c0 .175.033.543.106 1.102a31.037 31.037 0 0 0-2.385-.265 38.928 38.928 0 0 0-2.662-.085v5.507h2.272c.889 0 1.784-.081 2.687-.239l-.105 1.102c0 .218.036.59.105 1.116a13.415 13.415 0 0 0-.765-.107c-.265-.03-.47-.051-.619-.069-.192 0-.443-.012-.753-.034-.31-.02-.492-.03-.55-.03h-2.272v6.507c.357 0 .834-.012 1.43-.038a43.451 43.451 0 0 1 1.246-.034c.335 0 .688-.026 1.06-.077.368-.051.805-.115 1.31-.2l-.105 1.101c0 .176.033.543.106 1.103h-8.32V27.843h8.32zm7.933 15.608l1.205-.034 1.248-.051c.35 0 .74-.025 1.17-.077.429-.051.695-.08.8-.094.103-.012.295-.042.58-.094l-.106 1.102c0 .176.036.543.106 1.103h-8.276V27.843h.355c.096 0 .263.018.496.052l.79.072.83-.085.802-.039v15.608zm10.46-3.379l-.54 1.794-.593 1.987-.404 1.53-.514-.038-.51-.04-.509.04-.535.038 6.252-17.766a4.493 4.493 0 0 0 1.653 0l6.102 17.813-1.879-.124-.95.085-.936.039c-.64-2.444-1.158-4.23-1.547-5.358h-5.09zm4.588-1.564l-1.941-5.969-2.054 5.97h3.995zm8.567-10.665h4.65c1.736 0 2.916.172 3.542.513 1.263.787 1.897 2.009 1.897 3.667 0 1.226-.302 2.234-.907 3.016-.604.786-1.438 1.32-2.497 1.602l1.1 2.166 1.452 2.666 1.311 2.367.855 1.59-1.988-.124-1.012.085-.961.039-2.593-5.384-.724-1.453-.703-1.388h-.15v8.225l-1.641-.124-.819.085-.812.039V27.843zm3.273 8.26l.543.025c1.925 0 2.89-1.23 2.89-3.691l-.032-.616a6.942 6.942 0 0 1-.033-.299 4.712 4.712 0 0 0-.051-.376c-.106-.781-.393-1.299-.852-1.546-.462-.244-1.067-.368-1.813-.368h-.652v6.87zm9.588-8.26h.357c.095 0 .263.018.496.052l.78.072.83-.085.812-.039v7.286c0 2.452.05 4.054.156 4.798.101.747.23 1.328.378 1.743.15.41.408.829.78 1.243a3.41 3.41 0 0 0 1.103.83c.4.183.863.272 1.383.272.674 0 1.25-.098 1.726-.294a2.96 2.96 0 0 0 1.234-.97c.347-.449.653-1.06.918-1.83.266-.764.4-2.532.4-5.306v-7.772a5.047 5.047 0 0 0 1.748 0v9.127l-.032 1.564c0 .239-.011.474-.026.692-.018.222-.058.62-.113 1.192-.058.568-.25 1.235-.582 1.995-.332.76-.853 1.423-1.562 1.991-1.067.91-2.443 1.363-4.13 1.363a8.88 8.88 0 0 1-2.72-.401 5.546 5.546 0 0 1-2.235-1.363c-.648-.641-1.103-1.491-1.358-2.543a13.933 13.933 0 0 1-.343-3.153V27.843zM364.8 31.15c-.484-1.486-1.325-2.23-2.52-2.23-1.599 0-2.4.838-2.4 2.517 0 .726.216 1.278.642 1.649.425.346 1.237.88 2.439 1.611 1.198.73 2.094 1.491 2.684 2.277.59.79.885 1.838.885 3.15 0 1.067-.245 2.029-.733 2.883a5.243 5.243 0 0 1-2.068 2.021c-.892.491-1.89.74-2.993.74-1.358 0-2.53-.368-3.52-1.103.32-1.316.535-2.405.64-3.264h.415c.15.859.503 1.546 1.056 2.059a2.788 2.788 0 0 0 1.955.769c.703 0 1.308-.235 1.807-.7.502-.466.753-1.125.753-1.966 0-.902-.226-1.551-.673-1.953-.448-.401-1.25-.923-2.4-1.563-1.154-.646-2.014-1.338-2.585-2.077-.568-.743-.852-1.812-.852-3.205 0-.726.105-1.413.313-2.067a4.84 4.84 0 0 1 .958-1.714 4.546 4.546 0 0 1 1.62-1.175 5.243 5.243 0 0 1 1.02-.316 5.788 5.788 0 0 1 1.135-.11c.74 0 1.428.123 2.061.375.637.248 1.1.538 1.384.863l-.226.773-.47 1.757h-.328zM253.674 45.623c-.72 0-1.373-.138-1.958-.417a4.112 4.112 0 0 1-1.507-1.231c-.42-.54-.744-1.207-.977-1.991-.23-.788-.346-1.672-.346-2.659 0-1.166.202-2.23.605-3.196.405-.966.996-1.733 1.773-2.297.775-.567 1.683-.85 2.718-.85.869 0 1.615.189 2.242.568.628.38 1.126.872 1.494 1.48.37.609.637 1.284.8 2.024.084.37.147.735.19 1.093.017.147.03.323.043.529a8.469 8.469 0 0 1-.334 3.038 6.334 6.334 0 0 1-1.013 2.029 4.872 4.872 0 0 1-1.624 1.372 4.465 4.465 0 0 1-2.106.508zm-2.642-5.781c0 .79.096 1.55.285 2.28.19.728.485 1.316.89 1.765.195.211.421.379.682.506a2.091 2.091 0 0 0 .847.173c.623 0 1.154-.256 1.59-.77.435-.514.76-1.202.976-2.065a11.7 11.7 0 0 0 .321-2.812c0-.434-.024-.84-.069-1.213a8.187 8.187 0 0 0-.222-1.119c-.19-.746-.49-1.357-.903-1.833-.412-.476-.921-.714-1.522-.714a2.15 2.15 0 0 0-1.202.35c-.353.232-.655.588-.905 1.066-.25.48-.442 1.087-.571 1.822-.063.367-.112.76-.146 1.187-.033.422-.05.884-.05 1.377zm11.332 5.549l-1.122-.085-.57.058-.56.027v-12.09h5.721l-.072.757c0 .12.025.373.072.758l-.844-.12a8.716 8.716 0 0 0-.4-.044 4.04 4.04 0 0 0-.37-.018l-.947-.027-.908-.032v3.786h1.592c.498 0 1.104-.055 1.82-.164l-.076.758c0 .15.026.405.076.767l-1.152-.12-.684-.045h-1.576v5.834z" fill="#0C54A0" fill-rule="nonzero"/></g></svg>