<svg width="281" height="76" viewBox="0 0 281 76" fill="none" xmlns="http://www.w3.org/2000/svg">
<path d="M39.4342 11.1727C38.1942 10.6071 36.9169 10.0918 35.6272 9.63935C34.3375 9.18689 33.0231 8.7847 31.6838 8.44536C30.3321 8.09344 28.9432 7.80437 27.542 7.59071C25.1238 7.20109 22.6437 7 20.1139 7C17.609 7 15.1537 7.20109 12.7479 7.57814C11.3714 7.7918 10.0074 8.08087 8.66808 8.42022C7.32881 8.75956 6.01433 9.14918 4.72466 9.60164C3.42258 10.0541 2.15771 10.5694 0.917641 11.135C0.756432 12.5552 0.669627 13.988 0.657227 15.4459C0.657227 15.6093 0.657227 15.7727 0.657227 15.9361C0.657227 17.0295 0.694429 18.123 0.781234 19.2038C1.59968 18.8268 2.41813 18.4623 3.26137 18.123C3.27378 18.123 3.28618 18.123 3.29858 18.1104C3.621 17.9596 3.94341 17.8087 4.27823 17.6705C5.4563 17.1552 6.65917 16.6902 7.88684 16.288C9.11451 15.8858 10.3794 15.5339 11.6567 15.2574C12.8099 14.9934 13.988 14.7924 15.1785 14.6541H15.1909C18.6507 14.0257 22.2097 13.6989 25.8431 13.6989C26.7607 13.6989 27.6784 13.724 28.596 13.7618C29.3897 13.7995 30.1833 13.8497 30.977 13.9251H30.9894C31.4606 13.8246 31.9442 13.724 32.4154 13.6361C33.1223 13.5104 33.8415 13.3973 34.5608 13.2842C35.0444 13.2213 35.5404 13.1459 36.0364 13.0956C37.2145 12.9574 38.3926 12.8443 39.583 12.7814C39.5334 12.2284 39.4838 11.7005 39.4342 11.1727Z" fill="#1A95D3"/>
<path d="M36.1109 17.2306C35.9249 17.3061 35.7388 17.394 35.5528 17.4694C34.4616 17.947 33.3951 18.4498 32.341 18.9902C32.3162 19.3421 32.279 19.6815 32.2418 20.0208C32.093 21.2776 31.8822 22.5093 31.6094 23.7285C31.3366 24.9099 31.0142 26.0787 30.6298 27.2099C30.2453 28.3787 29.7865 29.5099 29.2781 30.6159C27.6784 34.0973 25.5207 37.2771 22.9413 40.017C22.0609 40.947 21.1432 41.8143 20.176 42.6438C19.1963 41.8143 18.2538 40.9219 17.361 39.9793C15.7737 38.2951 14.36 36.4476 13.1324 34.4744C12.3139 35.4673 11.5203 36.4979 10.7638 37.5536C10.0074 38.5968 9.30054 39.6525 8.6185 40.7334C9.41214 41.8394 10.2678 42.9077 11.173 43.9383C12.0659 44.9563 12.9959 45.9241 13.9756 46.8416C14.9305 47.7465 15.9349 48.6011 16.9766 49.4055C18.0058 50.2099 19.0847 50.964 20.1884 51.6678C21.292 50.964 22.3709 50.2099 23.4001 49.4055C24.4418 48.6011 25.4339 47.7465 26.3887 46.8416C27.356 45.9367 28.286 44.9815 29.1541 43.976C31.7334 41.0602 33.9035 37.7673 35.6024 34.1979C36.1357 33.0667 36.6317 31.9104 37.0657 30.729C37.4997 29.5602 37.8842 28.3662 38.219 27.147C38.5662 25.8902 38.8514 24.6082 39.0746 23.3137C39.2978 22.0443 39.4591 20.7498 39.5583 19.4427C39.6575 18.2864 39.7071 17.105 39.7071 15.9235V15.823C38.4794 16.2629 37.2889 16.7279 36.1109 17.2306Z" fill="#1FA654"/>
<path d="M39.6947 15.4962V15.3077C39.6823 14.453 39.6451 13.5984 39.5831 12.7563C38.3926 12.8317 37.2021 12.9322 36.0365 13.0705C35.5404 13.1333 35.0444 13.1962 34.5608 13.259C33.8415 13.3596 33.1223 13.4852 32.4155 13.6109C31.9318 13.6989 31.4606 13.7869 30.9894 13.9C30.2081 14.0634 29.4269 14.2393 28.658 14.4279C28.0628 14.5787 27.48 14.7295 26.8971 14.8929C24.0326 15.7098 21.2672 16.7279 18.6011 17.9344H18.5887C16.3565 18.9399 14.2236 20.0836 12.1403 21.353C10.987 22.0568 8.5689 23.741 8.46969 23.7787C7.47763 24.4825 6.52278 25.224 5.58033 25.9907C4.56347 26.8202 3.57141 27.6749 2.60416 28.5672C2.82737 29.271 3.06298 29.9749 3.311 30.6536C3.74502 31.835 4.24105 32.9913 4.76188 34.1224C5.86554 36.4475 7.16762 38.647 8.6433 40.7082C9.32534 39.6273 10.0446 38.559 10.7886 37.5284C11.5451 36.4727 12.3387 35.4421 13.1572 34.4492C14.0004 33.4186 14.8685 32.4382 15.7737 31.4705C16.5922 30.6033 17.423 29.7612 18.2911 28.9443C19.6303 27.6623 21.044 26.4432 22.5073 25.2995C23.8714 24.2311 25.2726 23.2131 26.7235 22.2579C27.2196 21.9311 27.728 21.6044 28.2364 21.2902C29.1913 20.6995 30.1585 20.1339 31.1506 19.606C31.5598 19.3798 31.969 19.1661 32.3783 18.9525C33.4323 18.412 34.4988 17.9093 35.59 17.4317C35.776 17.3437 35.9621 17.2683 36.1481 17.1929C37.3261 16.6902 38.5166 16.2251 39.7319 15.7978C39.6947 15.7224 39.6947 15.6093 39.6947 15.4962Z" fill="#E3322A"/>
<path d="M58.4569 20.2985V23.9182H60.0566C61.6687 23.9182 63.1072 24.0439 64.372 24.2952C65.6369 24.5466 66.7034 24.9614 67.5714 25.5395C68.4395 26.1051 69.0967 26.8466 69.5679 27.7641C70.0268 28.669 70.2624 29.7876 70.2624 31.0947C70.2624 33.5329 69.3943 35.3554 67.6458 36.5493C65.8973 37.7433 63.4048 38.3466 60.1682 38.3466C59.2878 38.3466 58.2957 38.2963 57.1796 38.1832C56.0636 38.0827 54.9351 37.8816 53.8066 37.6051V16.1007H68.2039V20.2985H58.4569ZM60.3914 34.1237C61.0362 34.1237 61.6563 34.086 62.2391 33.998C62.8219 33.91 63.3428 33.7592 63.7892 33.5329C64.2356 33.3067 64.5952 33.0051 64.8681 32.628C65.1409 32.251 65.2773 31.7482 65.2773 31.1324C65.2773 30.4914 65.1533 29.9761 64.9053 29.5739C64.6573 29.1717 64.2976 28.8575 63.8388 28.6187C63.38 28.3799 62.8095 28.2291 62.1399 28.1411C61.4703 28.0532 60.7138 28.0155 59.883 28.0155H58.4445V34.0482C58.6801 34.0734 58.9529 34.086 59.2753 34.0985C59.6102 34.1111 59.9822 34.1237 60.3914 34.1237Z" fill="#025553"/>
<path d="M73.437 38.1204V16.1007H88.107V20.2608H78.3229V24.5843H87.0158V28.6564H78.3229V33.9603H88.8263V38.1204H73.437Z" fill="#025553"/>
<path d="M156.646 27.1482C156.646 28.9581 156.373 30.5543 155.84 31.9242C155.294 33.2941 154.562 34.4504 153.62 35.3805C152.677 36.3105 151.561 37.0018 150.272 37.4668C148.97 37.9319 147.581 38.1707 146.093 38.1707C144.642 38.1707 143.278 37.9319 141.988 37.4668C140.698 37.0018 139.582 36.298 138.615 35.3805C137.66 34.4504 136.904 33.3067 136.346 31.9242C135.8 30.5543 135.515 28.9581 135.515 27.1482C135.515 25.3384 135.8 23.7422 136.371 22.3723C136.941 21.0023 137.71 19.8461 138.689 18.9034C139.657 17.9734 140.785 17.2696 142.062 16.792C143.34 16.3269 144.679 16.0881 146.093 16.0881C147.544 16.0881 148.908 16.3269 150.197 16.792C151.487 17.257 152.603 17.9608 153.57 18.9034C154.525 19.8461 155.282 20.9898 155.84 22.3723C156.373 23.7422 156.646 25.3384 156.646 27.1482ZM140.45 27.1482C140.45 28.1914 140.574 29.1215 140.835 29.951C141.095 30.7805 141.455 31.5094 141.938 32.1002C142.422 32.7034 143.005 33.1685 143.699 33.4952C144.394 33.822 145.187 33.9854 146.093 33.9854C146.973 33.9854 147.767 33.822 148.461 33.4952C149.168 33.1685 149.751 32.7034 150.235 32.1002C150.718 31.4969 151.078 30.7805 151.338 29.951C151.599 29.1215 151.723 28.1788 151.723 27.1482C151.723 26.1051 151.599 25.1625 151.338 24.3204C151.078 23.4783 150.718 22.7493 150.235 22.1461C149.751 21.5428 149.168 21.0778 148.461 20.751C147.754 20.4242 146.961 20.2608 146.093 20.2608C145.2 20.2608 144.394 20.4242 143.699 20.7635C143.005 21.1029 142.422 21.5679 141.938 22.1712C141.455 22.7745 141.095 23.4909 140.835 24.3455C140.574 25.2002 140.45 26.1302 140.45 27.1482Z" fill="#025553"/>
<path d="M190.066 37.957C186.631 37.957 184.014 37.0144 182.216 35.1166C180.418 33.2187 179.525 30.5291 179.525 27.0477C179.525 25.3133 179.798 23.7674 180.343 22.41C180.889 21.0526 181.646 19.8963 182.6 18.9663C183.555 18.0237 184.696 17.3198 186.011 16.8297C187.325 16.3395 188.764 16.1007 190.301 16.1007C191.194 16.1007 192.013 16.1635 192.744 16.3018C193.476 16.4275 194.121 16.5783 194.666 16.7543C195.212 16.9302 195.671 17.1062 196.043 17.2821C196.402 17.4581 196.675 17.6089 196.836 17.7095L195.46 21.5176C194.815 21.1783 194.059 20.8767 193.191 20.6379C192.323 20.3991 191.343 20.2734 190.252 20.2734C189.52 20.2734 188.801 20.3991 188.106 20.6379C187.399 20.8767 186.792 21.2663 186.246 21.8067C185.713 22.3472 185.279 23.0258 184.957 23.8805C184.634 24.7226 184.473 25.7532 184.473 26.9597C184.473 27.9275 184.585 28.8324 184.795 29.6619C185.006 30.504 185.353 31.2204 185.825 31.8237C186.296 32.4269 186.928 32.9045 187.697 33.2564C188.466 33.6084 189.408 33.7843 190.5 33.7843C191.194 33.7843 191.814 33.7466 192.36 33.6586C192.905 33.5832 193.389 33.4827 193.823 33.3696C194.245 33.2564 194.629 33.1308 194.952 32.9925C195.274 32.8543 195.572 32.716 195.832 32.6029L197.146 36.386C196.477 36.7881 195.534 37.1526 194.319 37.4794C193.079 37.7936 191.665 37.957 190.066 37.957Z" fill="#025553"/>
<path d="M98.6601 16.1007C98.6601 19.1297 98.5485 21.3417 98.3253 23.7925C98.102 26.2433 97.8292 28.3297 97.3084 29.8756C96.8868 31.1324 96.5024 32.2133 95.5351 32.9171C94.8283 33.4324 93.4146 33.9854 92.1001 33.9854V38.045C93.7742 37.9821 95.5475 37.6805 96.7132 37.1526C97.8788 36.6247 98.8585 35.9084 99.6397 35.0286C100.421 34.1362 101.041 33.1182 101.487 31.9493C101.934 30.7805 102.281 29.5362 102.517 28.204C102.752 26.8717 102.926 25.4892 103.013 24.0564C103.112 22.6237 103.186 21.7187 103.248 20.2985H108.581V38.1329H113.467V16.1007H98.6601Z" fill="#025553"/>
<path d="M169.803 37.957C166.368 37.957 163.751 37.0144 161.953 35.1166C160.155 33.2187 159.262 30.5291 159.262 27.0477C159.262 25.3133 159.535 23.7674 160.081 22.41C160.626 21.0526 161.383 19.8963 162.338 18.9663C163.292 18.0237 164.433 17.3198 165.748 16.8297C167.062 16.3395 168.501 16.1007 170.038 16.1007C170.931 16.1007 171.75 16.1635 172.481 16.3018C173.213 16.4275 173.858 16.5783 174.404 16.7543C174.949 16.9302 175.408 17.1062 175.78 17.2821C176.14 17.4581 176.412 17.6089 176.574 17.7095L175.197 21.5176C174.552 21.1783 173.796 20.8767 172.928 20.6379C172.06 20.3991 171.08 20.2734 169.989 20.2734C169.257 20.2734 168.538 20.3991 167.844 20.6379C167.137 20.8767 166.529 21.2663 165.983 21.8067C165.45 22.3472 165.016 23.0258 164.694 23.8805C164.371 24.7226 164.21 25.7532 164.21 26.9597C164.21 27.9275 164.322 28.8324 164.533 29.6619C164.743 30.504 165.091 31.2204 165.562 31.8237C166.033 32.4269 166.665 32.9045 167.434 33.2564C168.203 33.6084 169.146 33.7843 170.237 33.7843C170.931 33.7843 171.551 33.7466 172.097 33.6586C172.643 33.5832 173.126 33.4827 173.56 33.3696C173.982 33.2564 174.366 33.1308 174.689 32.9925C175.011 32.8543 175.309 32.716 175.569 32.6029L176.884 36.386C176.214 36.7881 175.272 37.1526 174.056 37.4794C172.829 37.7936 171.415 37.957 169.803 37.957Z" fill="#025553"/>
<path d="M123.189 16.0253C126.896 16.0253 128.918 16.6034 130.654 17.7597C132.39 18.916 133.258 20.8012 133.258 23.428C133.258 26.0799 132.378 27.9903 130.629 29.1591C128.868 30.3406 126.363 30.9187 123.102 30.9187H121.564V38.1203H116.678V16.1635C116.678 16.1635 122.296 16.0253 123.189 16.0253ZM123.511 20.2482C123.151 20.2482 122.804 20.2608 122.457 20.2859C122.11 20.3111 121.812 20.3236 121.564 20.3488V26.7083H123.102C124.801 26.7083 126.066 26.4821 126.934 26.0045C127.789 25.5395 128.223 24.6723 128.223 23.4029C128.223 22.787 128.112 22.2843 127.901 21.8821C127.678 21.4799 127.368 21.1531 126.958 20.9143C126.549 20.6755 126.053 20.4996 125.47 20.4116C124.863 20.2985 124.218 20.2482 123.511 20.2482Z" fill="#025553"/>
<path d="M217.942 16.1887V20.4117H211.395V38.2084H206.497V20.4117H199.949V16.1887H217.942Z" fill="#025553"/>
<path d="M253.222 38.1204C252.987 37.3537 252.726 36.6499 252.441 35.8455C252.168 35.0412 251.883 34.2368 251.61 33.4324H243.128C242.855 34.2368 242.583 35.0412 242.297 35.8455C242.025 36.6499 241.764 37.3537 241.529 38.1078H236.196L244.964 16.1761H250.023L258.803 38.1078H253.222V38.1204ZM247.344 21.1783C247.233 21.4925 247.072 21.9324 246.861 22.4854C246.65 23.0384 246.414 23.6669 246.142 24.3958C245.869 25.1122 245.571 25.9166 245.236 26.7838C244.902 27.651 244.567 28.5559 244.219 29.5111H250.432C250.097 28.5559 249.775 27.6384 249.465 26.7712C249.155 25.904 248.857 25.0996 248.572 24.3833C248.287 23.6669 248.039 23.0259 247.828 22.4729C247.642 21.9199 247.468 21.4925 247.344 21.1783Z" fill="#025553"/>
<path d="M274.899 38.1204L270.385 31.1952L265.797 38.1204H260.216C261.134 36.3985 267.62 26.9597 267.62 26.9597L260.526 16.1007H266.454L270.596 22.4728L274.824 16.1007H280.405L273.349 26.7335C273.349 26.7335 280.058 36.7881 280.752 38.1329H274.899V38.1204Z" fill="#025553"/>
<path d="M227.689 16.0002C231.397 16.0002 233.418 16.5783 235.155 17.7346C236.891 18.8909 237.759 20.7761 237.759 23.4029C237.759 26.0548 236.878 27.9652 235.13 29.1341C233.369 30.3155 230.864 30.8936 227.603 30.8936H226.065V38.0953H221.179V16.1384C221.167 16.1384 226.797 16.0002 227.689 16.0002ZM227.999 20.2357C227.64 20.2357 227.293 20.2483 226.945 20.2734C226.598 20.2985 226.3 20.3111 226.052 20.3362V26.6958H227.59C229.289 26.6958 230.554 26.4696 231.422 25.992C232.278 25.527 232.712 24.6597 232.712 23.3903C232.712 22.7745 232.6 22.2718 232.377 21.8696C232.154 21.4674 231.844 21.1406 231.434 20.9018C231.025 20.663 230.529 20.4871 229.946 20.3991C229.363 20.2734 228.719 20.2357 227.999 20.2357Z" fill="#025553"/>
<path d="M59.5029 56.6262C58.7054 56.6262 58.0879 56.9269 57.6504 57.5285C57.2129 58.1255 56.9941 58.9595 56.9941 60.0305C56.9941 62.259 57.8304 63.3732 59.5029 63.3732C60.2048 63.3732 61.0547 63.1978 62.0527 62.8469V64.6242C61.2324 64.966 60.3164 65.1369 59.3047 65.1369C57.8509 65.1369 56.7389 64.6971 55.9688 63.8176C55.1986 62.9335 54.8135 61.6665 54.8135 60.0168C54.8135 58.9777 55.0026 58.0685 55.3809 57.2892C55.7591 56.5054 56.3014 55.9061 57.0078 55.4914C57.7188 55.0721 58.5505 54.8625 59.5029 54.8625C60.4736 54.8625 61.4489 55.0972 62.4287 55.5666L61.7451 57.2892C61.3714 57.1115 60.9954 56.9566 60.6172 56.8244C60.2389 56.6922 59.8675 56.6262 59.5029 56.6262ZM71.3168 57.3576V65.0002H69.225V58.923H66.4564V65.0002H64.3715V57.3576H71.3168ZM75.5154 61.1652C75.5154 61.9217 75.6385 62.4937 75.8846 62.881C76.1352 63.2684 76.5408 63.4621 77.1014 63.4621C77.6574 63.4621 78.0561 63.2707 78.2977 62.8879C78.5438 62.5005 78.6668 61.9263 78.6668 61.1652C78.6668 60.4087 78.5438 59.8413 78.2977 59.4631C78.0516 59.0848 77.6482 58.8957 77.0877 58.8957C76.5317 58.8957 76.1307 59.0848 75.8846 59.4631C75.6385 59.8368 75.5154 60.4042 75.5154 61.1652ZM80.7996 61.1652C80.7996 62.4094 80.4715 63.3823 79.8152 64.0842C79.159 64.786 78.2452 65.1369 77.074 65.1369C76.3403 65.1369 75.6932 64.9774 75.1326 64.6584C74.5721 64.3348 74.1414 63.8723 73.8406 63.2707C73.5398 62.6691 73.3895 61.9673 73.3895 61.1652C73.3895 59.9165 73.7153 58.9458 74.367 58.2531C75.0187 57.5604 75.9347 57.2141 77.115 57.2141C77.8488 57.2141 78.4959 57.3736 79.0564 57.6926C79.617 58.0116 80.0477 58.4696 80.3484 59.0666C80.6492 59.6636 80.7996 60.3631 80.7996 61.1652ZM87.883 57.3576H90.1799L87.1516 61.0217L90.4465 65.0002H88.0812L84.9572 61.1242V65.0002H82.8723V57.3576H84.9572V61.0695L87.883 57.3576ZM93.5514 61.1652C93.5514 61.9217 93.6744 62.4937 93.9205 62.881C94.1712 63.2684 94.5768 63.4621 95.1373 63.4621C95.6933 63.4621 96.0921 63.2707 96.3336 62.8879C96.5797 62.5005 96.7027 61.9263 96.7027 61.1652C96.7027 60.4087 96.5797 59.8413 96.3336 59.4631C96.0875 59.0848 95.6842 58.8957 95.1236 58.8957C94.5676 58.8957 94.1666 59.0848 93.9205 59.4631C93.6744 59.8368 93.5514 60.4042 93.5514 61.1652ZM98.8355 61.1652C98.8355 62.4094 98.5074 63.3823 97.8512 64.0842C97.1949 64.786 96.2812 65.1369 95.11 65.1369C94.3762 65.1369 93.7291 64.9774 93.1686 64.6584C92.608 64.3348 92.1773 63.8723 91.8766 63.2707C91.5758 62.6691 91.4254 61.9673 91.4254 61.1652C91.4254 59.9165 91.7512 58.9458 92.4029 58.2531C93.0546 57.5604 93.9706 57.2141 95.151 57.2141C95.8847 57.2141 96.5318 57.3736 97.0924 57.6926C97.6529 58.0116 98.0836 58.4696 98.3844 59.0666C98.6852 59.6636 98.8355 60.3631 98.8355 61.1652ZM102.925 57.3576V60.3791C102.925 60.6981 102.872 61.4774 102.768 62.717L106.295 57.3576H108.804V65.0002H106.787V61.9514C106.787 61.409 106.833 60.6434 106.924 59.6545L103.41 65.0002H100.908V57.3576H102.925ZM108.188 54.0695C108.102 54.9217 107.781 55.5438 107.225 55.9357C106.669 56.3231 105.867 56.5168 104.818 56.5168C103.738 56.5168 102.938 56.3299 102.419 55.9562C101.904 55.5825 101.615 54.9536 101.551 54.0695H103.417C103.449 54.5389 103.565 54.8693 103.766 55.0607C103.971 55.2476 104.335 55.341 104.859 55.341C105.32 55.341 105.661 55.2385 105.885 55.0334C106.113 54.8238 106.252 54.5025 106.302 54.0695H108.188ZM114.452 65.1369C112.073 65.1369 110.883 63.8312 110.883 61.2199C110.883 59.9211 111.207 58.9299 111.854 58.2463C112.501 57.5581 113.428 57.2141 114.636 57.2141C115.52 57.2141 116.313 57.3872 117.015 57.7336L116.4 59.3469C116.072 59.2147 115.766 59.1076 115.484 59.0256C115.201 58.939 114.919 58.8957 114.636 58.8957C113.551 58.8957 113.009 59.6659 113.009 61.2062C113.009 62.701 113.551 63.4484 114.636 63.4484C115.037 63.4484 115.409 63.396 115.75 63.2912C116.092 63.1818 116.434 63.0132 116.776 62.7853V64.5695C116.439 64.7837 116.097 64.9318 115.75 65.0139C115.409 65.0959 114.976 65.1369 114.452 65.1369ZM125.226 57.3576V58.923H122.724V65.0002H120.639V58.923H118.131V57.3576H125.226ZM134.06 59.3605C134.06 59.7707 133.93 60.1216 133.67 60.4133C133.415 60.7004 133.037 60.8849 132.535 60.967V61.0217C133.078 61.0855 133.506 61.2723 133.821 61.5822C134.14 61.8876 134.299 62.2658 134.299 62.717C134.299 63.4598 134.007 64.0272 133.424 64.4191C132.841 64.8065 132.007 65.0002 130.922 65.0002H127.005V57.3576H130.922C131.97 57.3576 132.754 57.5285 133.274 57.8703C133.798 58.2075 134.06 58.7043 134.06 59.3605ZM132.139 62.6076C132.139 62.3068 132.023 62.0904 131.79 61.9582C131.558 61.8215 131.209 61.7531 130.744 61.7531H129.09V63.5578H130.785C131.227 63.5578 131.562 63.4758 131.79 63.3117C132.023 63.1431 132.139 62.9084 132.139 62.6076ZM131.947 59.5246C131.947 59.0598 131.578 58.8273 130.84 58.8273H129.09V60.3381H130.601C131.043 60.3381 131.378 60.2743 131.606 60.1467C131.834 60.0191 131.947 59.8117 131.947 59.5246ZM138.327 57.3576V60.3791C138.327 60.6981 138.274 61.4774 138.17 62.717L141.697 57.3576H144.206V65.0002H142.189V61.9514C142.189 61.409 142.235 60.6434 142.326 59.6545L138.812 65.0002H136.31V57.3576H138.327ZM149.915 58.6974C149.473 58.6974 149.127 58.8387 148.876 59.1213C148.625 59.3993 148.482 59.7958 148.445 60.3107H151.371C151.362 59.7958 151.228 59.3993 150.968 59.1213C150.708 58.8387 150.357 58.6974 149.915 58.6974ZM150.209 65.1369C148.979 65.1369 148.017 64.7974 147.324 64.1183C146.632 63.4393 146.285 62.4777 146.285 61.2336C146.285 59.953 146.604 58.9641 147.242 58.2668C147.885 57.565 148.771 57.2141 149.901 57.2141C150.981 57.2141 151.822 57.5217 152.424 58.1369C153.025 58.7521 153.326 59.6021 153.326 60.6867V61.6984H148.397C148.42 62.2909 148.596 62.7534 148.924 63.0861C149.252 63.4188 149.712 63.5851 150.305 63.5851C150.765 63.5851 151.2 63.5373 151.61 63.4416C152.021 63.3459 152.449 63.1932 152.896 62.9836V64.5969C152.531 64.7792 152.141 64.9136 151.727 65.0002C151.312 65.0913 150.806 65.1369 150.209 65.1369ZM166.413 59.3605C166.413 59.7707 166.283 60.1216 166.023 60.4133C165.768 60.7004 165.39 60.8849 164.888 60.967V61.0217C165.431 61.0855 165.859 61.2723 166.174 61.5822C166.493 61.8876 166.652 62.2658 166.652 62.717C166.652 63.4598 166.36 64.0272 165.777 64.4191C165.194 64.8065 164.36 65.0002 163.275 65.0002H159.358V57.3576H163.275C164.323 57.3576 165.107 57.5285 165.627 57.8703C166.151 58.2075 166.413 58.7043 166.413 59.3605ZM164.492 62.6076C164.492 62.3068 164.376 62.0904 164.143 61.9582C163.911 61.8215 163.562 61.7531 163.097 61.7531H161.443V63.5578H163.138C163.581 63.5578 163.915 63.4758 164.143 63.3117C164.376 63.1431 164.492 62.9084 164.492 62.6076ZM164.301 59.5246C164.301 59.0598 163.931 58.8273 163.193 58.8273H161.443V60.3381H162.954C163.396 60.3381 163.731 60.2743 163.959 60.1467C164.187 60.0191 164.301 59.8117 164.301 59.5246ZM173.674 57.3576H175.971L172.943 61.0217L176.238 65.0002H173.872L170.748 61.1242V65.0002H168.663V57.3576H170.748V61.0695L173.674 57.3576ZM184.524 65.0002H182.439V58.923H180.518C180.372 60.632 180.195 61.9081 179.985 62.7512C179.775 63.5897 179.495 64.1981 179.144 64.5764C178.798 64.9501 178.342 65.1369 177.777 65.1369C177.294 65.1369 176.897 65.064 176.588 64.9182V63.2502C176.811 63.3413 177.034 63.3869 177.257 63.3869C177.517 63.3869 177.734 63.2001 177.907 62.8264C178.085 62.4527 178.242 61.8306 178.379 60.9601C178.52 60.0851 178.641 58.8843 178.741 57.3576H184.524V65.0002ZM197.623 61.1652C197.623 62.4185 197.306 63.3937 196.673 64.091C196.039 64.7883 195.162 65.1369 194.041 65.1369C193.034 65.1369 192.227 64.8543 191.621 64.2892C191.02 63.7241 190.655 62.9107 190.527 61.8488H189.153V65.0002H187.068V57.3576H189.153V60.2971H190.555C190.687 59.3218 191.063 58.5653 191.683 58.0275C192.307 57.4852 193.107 57.2141 194.082 57.2141C195.162 57.2141 196.021 57.5695 196.659 58.2805C197.302 58.9868 197.623 59.9484 197.623 61.1652ZM192.626 61.1652C192.626 61.9263 192.738 62.5005 192.961 62.8879C193.184 63.2707 193.553 63.4621 194.068 63.4621C194.574 63.4621 194.939 63.2707 195.162 62.8879C195.385 62.5005 195.497 61.9263 195.497 61.1652C195.497 60.4042 195.383 59.8368 195.155 59.4631C194.932 59.0848 194.565 58.8957 194.055 58.8957C193.549 58.8957 193.184 59.0848 192.961 59.4631C192.738 59.8413 192.626 60.4087 192.626 61.1652ZM201.528 57.3576V60.1535C201.528 60.8189 201.835 61.1516 202.451 61.1516C202.852 61.1516 203.223 61.106 203.565 61.0148C203.911 60.9237 204.26 60.8052 204.611 60.6594V57.3576H206.696V65.0002H204.611V61.965C204.128 62.2202 203.679 62.4002 203.264 62.5051C202.849 62.6099 202.448 62.6623 202.061 62.6623C201.227 62.6623 200.582 62.4504 200.126 62.0266C199.671 61.5982 199.443 60.9898 199.443 60.2014V57.3576H201.528ZM212.398 58.6974C211.956 58.6974 211.61 58.8387 211.359 59.1213C211.109 59.3993 210.965 59.7958 210.929 60.3107H213.854C213.845 59.7958 213.711 59.3993 213.451 59.1213C213.191 58.8387 212.84 58.6974 212.398 58.6974ZM212.692 65.1369C211.462 65.1369 210.5 64.7974 209.807 64.1183C209.115 63.4393 208.768 62.4777 208.768 61.2336C208.768 59.953 209.087 58.9641 209.725 58.2668C210.368 57.565 211.254 57.2141 212.385 57.2141C213.465 57.2141 214.305 57.5217 214.907 58.1369C215.509 58.7521 215.809 59.6021 215.809 60.6867V61.6984H210.881C210.903 62.2909 211.079 62.7534 211.407 63.0861C211.735 63.4188 212.195 63.5851 212.788 63.5851C213.248 63.5851 213.683 63.5373 214.094 63.4416C214.504 63.3459 214.932 63.1932 215.379 62.9836V64.5969C215.014 64.7792 214.624 64.9136 214.21 65.0002C213.795 65.0913 213.289 65.1369 212.692 65.1369ZM219.94 57.3576V60.2971H222.852V57.3576H224.937V65.0002H222.852V61.8488H219.94V65.0002H217.855V57.3576H219.94ZM229.135 61.1652C229.135 61.9217 229.258 62.4937 229.504 62.881C229.755 63.2684 230.161 63.4621 230.721 63.4621C231.277 63.4621 231.676 63.2707 231.918 62.8879C232.164 62.5005 232.287 61.9263 232.287 61.1652C232.287 60.4087 232.164 59.8413 231.918 59.4631C231.671 59.0848 231.268 58.8957 230.708 58.8957C230.152 58.8957 229.751 59.0848 229.504 59.4631C229.258 59.8368 229.135 60.4042 229.135 61.1652ZM234.42 61.1652C234.42 62.4094 234.091 63.3823 233.435 64.0842C232.779 64.786 231.865 65.1369 230.694 65.1369C229.96 65.1369 229.313 64.9774 228.753 64.6584C228.192 64.3348 227.761 63.8723 227.461 63.2707C227.16 62.6691 227.009 61.9673 227.009 61.1652C227.009 59.9165 227.335 58.9458 227.987 58.2531C228.639 57.5604 229.555 57.2141 230.735 57.2141C231.469 57.2141 232.116 57.3736 232.676 57.6926C233.237 58.0116 233.668 58.4696 233.968 59.0666C234.269 59.6636 234.42 60.3631 234.42 61.1652ZM236.198 64.0226C236.198 63.6398 236.301 63.3504 236.506 63.1545C236.711 62.9585 237.009 62.8605 237.401 62.8605C237.78 62.8605 238.071 62.9608 238.276 63.1613C238.486 63.3618 238.591 63.6489 238.591 64.0226C238.591 64.3827 238.486 64.6675 238.276 64.8771C238.067 65.0822 237.775 65.1848 237.401 65.1848C237.019 65.1848 236.722 65.0845 236.513 64.884C236.303 64.6789 236.198 64.3918 236.198 64.0226Z" fill="#025553"/>
</svg>
