<svg width="190" height="52" viewBox="0 0 190 52" fill="none" xmlns="http://www.w3.org/2000/svg">
<path d="M24.2425 51.5123V35.9979H24.3028H49.4499C47.4448 40.6083 44.1386 44.5339 39.9363 47.2938C35.7339 50.0537 30.8179 51.5281 25.7903 51.5364C25.2757 51.5364 24.7571 51.5163 24.2385 51.4922L24.2425 51.5123ZM0 25.726V25.8667C0.0327561 31.9065 2.17936 37.7442 6.06719 42.3664C9.95503 46.9886 15.3386 50.1036 21.2835 51.1705V0.398011C15.3332 1.46282 9.94466 4.58047 6.05579 9.20832C2.16693 13.8362 0.0240036 19.6812 0 25.726ZM50.6278 32.6892L24.2425 32.6691H24.2626L24.2425 17.4602H50.1735C51.0984 20.1397 51.5659 22.9557 51.5565 25.7903C51.5531 28.1209 51.2408 30.4407 50.6278 32.6892ZM48.7905 14.1957H24.2425V0.0603046C24.7611 0.0201014 25.2797 0 25.7943 0C30.5628 0.0104126 35.2354 1.34019 39.2948 3.84212C43.3543 6.34405 46.6422 9.92053 48.7945 14.1756L48.7905 14.1957ZM4.87664 34.9405H7.08781L7.7592 32.8339L8.44266 34.9405H10.6538L8.87283 36.2632L9.55628 38.3699L7.7592 37.0713L5.97821 38.3699L6.64156 36.2632L4.86458 34.9405H4.87664ZM2.3157 24.548H4.46657L5.1259 22.5097L5.78523 24.5561H7.9361L6.19932 25.8345L6.86267 27.8809L5.1259 26.6225L3.38912 27.8809L4.05247 25.8345L2.3157 24.5561V24.548ZM5.31083 13.665H7.5019L8.16124 11.3654L8.86479 13.665H11.076L9.27888 14.9676L9.96234 17.0743L8.18536 15.7717L6.40838 17.0743L7.08781 14.9676L5.31083 13.665ZM13.1424 6.1752H15.2933L15.9526 4.13288L16.6039 6.1752H18.7507L17.018 7.45768L17.6773 9.46784L15.9405 8.20546L14.2158 9.48392L14.8792 7.47376L13.1424 6.19128V6.1752ZM13.0178 42.358H15.2129L15.8923 40.2514L16.5717 42.358H18.7427L17.0059 43.6405L17.6693 45.7472L15.9124 44.4486L14.1354 45.7472L14.8189 43.6405L13.0379 42.362L13.0178 42.358Z" fill="#1C1475"/>
<path d="M62.5078 13.4399H76.3658V16.6039H66.2829V20.7449H75.6663V23.8968H66.2829V28.9825H76.7357V32.1304H62.5078V13.4399ZM83.5823 23.9852V28.9825H87.0759C87.9407 29.0116 88.8064 28.9726 89.665 28.8659C90.1926 28.7824 90.6753 28.5198 91.0319 28.1221C91.4038 27.6776 91.5934 27.1088 91.5626 26.5301C91.5818 26.0239 91.4411 25.5246 91.1606 25.1029C90.8713 24.698 90.4577 24.3987 89.9826 24.2506C89.468 24.0683 88.3531 23.9785 86.6377 23.9812L83.5823 23.9852ZM83.5823 16.5517V20.8735H86.0548C87.5262 20.8735 88.4402 20.8521 88.7966 20.8092C89.3665 20.7667 89.9044 20.5296 90.3203 20.1378C90.5075 19.9461 90.6533 19.718 90.7487 19.4677C90.8441 19.2173 90.8872 18.9501 90.8751 18.6824C90.8941 18.173 90.7236 17.6746 90.3967 17.2834C90.0223 16.8887 89.5124 16.6503 88.9695 16.616C88.597 16.5704 87.5249 16.549 85.7533 16.5517H83.5823ZM79.8072 13.4399H87.277C88.383 13.4178 89.489 13.4796 90.5857 13.6249C91.285 13.7383 91.9515 14.0016 92.5396 14.3968C93.1274 14.8059 93.6176 15.3399 93.9748 15.9607C94.3606 16.6242 94.5579 17.3804 94.5457 18.1477C94.548 19.005 94.301 19.8444 93.8349 20.5639C93.3689 21.2834 92.7037 21.8519 91.9204 22.2002C92.9565 22.4657 93.878 23.0612 94.5457 23.8968C95.1616 24.7039 95.4861 25.6959 95.4663 26.711C95.4649 27.573 95.261 28.4226 94.8713 29.1915C94.5099 29.9611 93.956 30.6244 93.2632 31.1173C92.5103 31.6245 91.6394 31.9291 90.7344 32.0017C90.1032 32.0741 88.5876 32.1143 86.1834 32.1344H79.8072V13.4399ZM102.297 16.6039V21.9067H104.363C105.847 21.9067 106.844 21.8102 107.346 21.6132C107.825 21.4375 108.236 21.1171 108.524 20.6966C108.813 20.267 108.962 19.7587 108.95 19.2413C108.973 18.6251 108.759 18.0238 108.351 17.5608C107.956 17.1184 107.421 16.8247 106.836 16.7286C105.934 16.6199 105.026 16.5782 104.118 16.6039H102.297ZM98.5218 32.1304V13.4399H104.58C106.872 13.4399 108.372 13.5364 109.067 13.7214C110.146 14.0065 111.095 14.652 111.757 15.5506C112.517 16.607 112.899 17.8887 112.842 19.189C112.875 20.1909 112.66 21.1854 112.215 22.0836C111.842 22.8174 111.297 23.4504 110.627 23.9289C110.04 24.35 109.376 24.6506 108.673 24.8134C107.379 25.0233 106.068 25.1135 104.757 25.0828H102.297V32.1304H98.5218ZM119.427 22.7751C119.427 24.8898 119.917 26.4979 120.895 27.5995C121.367 28.1135 121.94 28.5238 122.579 28.8045C123.218 29.0852 123.908 29.2302 124.606 29.2302C125.303 29.2302 125.993 29.0852 126.632 28.8045C127.271 28.5238 127.844 28.1135 128.316 27.5995C129.285 26.514 129.764 24.8898 129.764 22.7229C129.764 20.5559 129.297 18.984 128.361 17.9266C127.873 17.4239 127.29 17.0242 126.645 16.7512C126.001 16.4783 125.308 16.3376 124.608 16.3376C123.907 16.3376 123.215 16.4783 122.57 16.7512C121.925 17.0242 121.342 17.4239 120.855 17.9266C119.898 18.996 119.427 20.6001 119.427 22.751V22.7751ZM115.544 22.9118C115.494 21.271 115.786 19.6379 116.4 18.1156C116.824 17.1641 117.413 16.2955 118.141 15.5506C118.822 14.8313 119.643 14.2593 120.553 13.8701C121.83 13.355 123.197 13.1034 124.573 13.1304C127.329 13.1304 129.534 13.9854 131.191 15.6953C132.847 17.4053 133.673 19.78 133.667 22.8193C133.667 25.8399 132.847 28.2012 131.207 29.9031C129.567 31.6051 127.374 32.4574 124.63 32.4601C121.848 32.4601 119.636 31.6118 117.996 29.9152C116.356 28.2186 115.538 25.8842 115.544 22.9118ZM155.667 32.2832V13.5847H159.438V20.9419H166.835V13.5847H170.606V32.2751H166.835V24.1179H159.438V32.2751L155.667 32.2832ZM186.342 25.4044L190 26.5623C189.437 28.6019 188.499 30.1176 187.186 31.1092C185.872 32.1009 184.224 32.5954 182.241 32.5927C181.099 32.6277 179.962 32.4188 178.907 31.98C177.852 31.5412 176.902 30.8825 176.122 30.0479C174.514 28.3567 173.71 26.0396 173.71 23.0967C173.71 19.985 174.514 17.5728 176.122 15.8602C177.73 14.1475 179.843 13.2818 182.462 13.2631C184.751 13.2631 186.61 13.9331 188.038 15.2732C188.975 16.2262 189.635 17.4157 189.948 18.7146L186.213 19.6071C186.04 18.6993 185.548 17.8836 184.825 17.3082C184.102 16.7327 183.196 16.4358 182.273 16.4713C181.635 16.4499 181 16.573 180.416 16.8312C179.832 17.0895 179.314 17.4763 178.9 17.9628C178.037 18.9545 177.605 20.5626 177.605 22.7872C177.605 25.1511 178.03 26.8343 178.88 27.8367C179.282 28.3231 179.79 28.7113 180.364 28.9718C180.939 29.2324 181.566 29.3584 182.197 29.3403C183.149 29.3592 184.074 29.0174 184.786 28.3835C185.509 27.7482 186.024 26.7432 186.342 25.3763V25.4044ZM148.149 32.1344V19.9448L140.623 32.1344H136.839V13.4399H140.345V25.923L147.984 13.4601H151.686V32.1545L148.149 32.1344Z" fill="#1C1475"/>
<path d="M65.6328 41.6465C65.5801 42.0977 65.4131 42.4463 65.1318 42.6924C64.8525 42.9365 64.4805 43.0586 64.0156 43.0586C63.5117 43.0586 63.1074 42.8779 62.8027 42.5166C62.5 42.1553 62.3486 41.6719 62.3486 41.0664V40.6562C62.3486 40.2598 62.4189 39.9111 62.5596 39.6104C62.7021 39.3096 62.9033 39.0791 63.1631 38.9189C63.4229 38.7568 63.7236 38.6758 64.0654 38.6758C64.5186 38.6758 64.8818 38.8027 65.1553 39.0566C65.4287 39.3086 65.5879 39.6582 65.6328 40.1055H65.0674C65.0186 39.7656 64.9121 39.5195 64.748 39.3672C64.5859 39.2148 64.3584 39.1387 64.0654 39.1387C63.7061 39.1387 63.4238 39.2715 63.2188 39.5371C63.0156 39.8027 62.9141 40.1807 62.9141 40.6709V41.084C62.9141 41.5469 63.0107 41.915 63.2041 42.1885C63.3975 42.4619 63.668 42.5986 64.0156 42.5986C64.3281 42.5986 64.5674 42.5283 64.7334 42.3877C64.9014 42.2451 65.0127 41.998 65.0674 41.6465H65.6328ZM72.3227 39.1973H70.9516V43H70.392V39.1973H69.0239V38.7344H72.3227V39.1973ZM76.578 41.3301V43H76.0155V38.7344H77.5887C78.0555 38.7344 78.4208 38.8535 78.6845 39.0918C78.9501 39.3301 79.0829 39.6455 79.0829 40.0381C79.0829 40.4521 78.953 40.7715 78.6932 40.9961C78.4354 41.2188 78.0653 41.3301 77.5829 41.3301H76.578ZM76.578 40.8701H77.5887C77.8895 40.8701 78.12 40.7998 78.2802 40.6592C78.4403 40.5166 78.5204 40.3115 78.5204 40.0439C78.5204 39.79 78.4403 39.5869 78.2802 39.4346C78.12 39.2822 77.9003 39.2031 77.621 39.1973H76.578V40.8701ZM84.8118 41.8867H83.0247L82.6234 43H82.0433L83.6722 38.7344H84.1644L85.7962 43H85.2191L84.8118 41.8867ZM83.1946 41.4238H84.6448L83.9183 39.4287L83.1946 41.4238ZM90.822 40.3691L91.8445 38.7344H92.5066L91.1589 40.8496L92.5388 43H91.8709L90.822 41.3359L89.7673 43H89.1023L90.4851 40.8496L89.1345 38.7344H89.7937L90.822 40.3691ZM99.4572 41.0049C99.4572 41.4229 99.3869 41.7881 99.2463 42.1006C99.1057 42.4111 98.9064 42.6484 98.6486 42.8125C98.3908 42.9766 98.09 43.0586 97.7463 43.0586C97.4104 43.0586 97.1125 42.9766 96.8527 42.8125C96.593 42.6465 96.3908 42.4111 96.2463 42.1064C96.1037 41.7998 96.0305 41.4453 96.0266 41.043V40.7354C96.0266 40.3252 96.0979 39.9629 96.2404 39.6484C96.383 39.334 96.5842 39.0938 96.8439 38.9277C97.1057 38.7598 97.4045 38.6758 97.7404 38.6758C98.0822 38.6758 98.383 38.7588 98.6428 38.9248C98.9045 39.0889 99.1057 39.3281 99.2463 39.6426C99.3869 39.9551 99.4572 40.3193 99.4572 40.7354V41.0049ZM98.8977 40.7295C98.8977 40.2236 98.7961 39.8359 98.593 39.5664C98.3898 39.2949 98.1057 39.1592 97.7404 39.1592C97.385 39.1592 97.1047 39.2949 96.8996 39.5664C96.6965 39.8359 96.592 40.2109 96.5861 40.6914V41.0049C96.5861 41.4951 96.6887 41.8809 96.8937 42.1621C97.1008 42.4414 97.385 42.5811 97.7463 42.5811C98.1096 42.5811 98.3908 42.4492 98.59 42.1855C98.7893 41.9199 98.8918 41.54 98.8977 41.0459V40.7295ZM103.361 43V38.7344H104.756C105.218 38.7344 105.566 38.8301 105.798 39.0215C106.033 39.2129 106.15 39.4961 106.15 39.8711C106.15 40.0703 106.093 40.2471 105.98 40.4014C105.867 40.5537 105.713 40.6719 105.517 40.7559C105.748 40.8203 105.929 40.9434 106.062 41.125C106.197 41.3047 106.264 41.5195 106.264 41.7695C106.264 42.1523 106.14 42.4531 105.892 42.6719C105.644 42.8906 105.294 43 104.84 43H103.361ZM103.923 41.0049V42.54H104.852C105.114 42.54 105.32 42.4727 105.47 42.3379C105.623 42.2012 105.699 42.0137 105.699 41.7754C105.699 41.2617 105.42 41.0049 104.861 41.0049H103.923ZM103.923 40.5537H104.773C105.019 40.5537 105.215 40.4922 105.362 40.3691C105.51 40.2461 105.585 40.0791 105.585 39.8682C105.585 39.6338 105.516 39.4639 105.38 39.3584C105.243 39.251 105.035 39.1973 104.756 39.1973H103.923V40.5537ZM112.515 41.8867H110.728L110.326 43H109.746L111.375 38.7344H111.867L113.499 43H112.922L112.515 41.8867ZM110.898 41.4238H112.348L111.621 39.4287L110.898 41.4238ZM119.366 43V41.3389H118.381L117.5 43H116.899L117.889 41.1836C117.338 40.9668 117.063 40.5791 117.063 40.0205C117.063 39.6143 117.196 39.2988 117.461 39.0742C117.729 38.8477 118.1 38.7344 118.575 38.7344H119.931V43H119.366ZM117.626 40.0205C117.626 40.2783 117.706 40.4854 117.866 40.6416C118.028 40.7979 118.252 40.877 118.54 40.8789H119.366V39.1973H118.566C118.261 39.1973 118.028 39.2695 117.866 39.4141C117.706 39.5586 117.626 39.7607 117.626 40.0205ZM134.218 41.084H133.699V43H133.137V38.7344H133.699V40.6152H134.139L135.63 38.7344H136.33L134.701 40.8027L136.45 43H135.762L134.218 41.084ZM143.213 41.0049C143.213 41.4229 143.143 41.7881 143.002 42.1006C142.862 42.4111 142.662 42.6484 142.405 42.8125C142.147 42.9766 141.846 43.0586 141.502 43.0586C141.166 43.0586 140.868 42.9766 140.609 42.8125C140.349 42.6465 140.147 42.4111 140.002 42.1064C139.86 41.7998 139.786 41.4453 139.783 41.043V40.7354C139.783 40.3252 139.854 39.9629 139.996 39.6484C140.139 39.334 140.34 39.0938 140.6 38.9277C140.862 38.7598 141.16 38.6758 141.496 38.6758C141.838 38.6758 142.139 38.7588 142.399 38.9248C142.66 39.0889 142.862 39.3281 143.002 39.6426C143.143 39.9551 143.213 40.3193 143.213 40.7354V41.0049ZM142.654 40.7295C142.654 40.2236 142.552 39.8359 142.349 39.5664C142.146 39.2949 141.862 39.1592 141.496 39.1592C141.141 39.1592 140.861 39.2949 140.656 39.5664C140.452 39.8359 140.348 40.2109 140.342 40.6914V41.0049C140.342 41.4951 140.445 41.8809 140.65 42.1621C140.857 42.4414 141.141 42.5811 141.502 42.5811C141.866 42.5811 142.147 42.4492 142.346 42.1855C142.545 41.9199 142.648 41.54 142.654 41.0459V40.7295ZM147.843 38.7344L149.238 42.2148L150.633 38.7344H151.362V43H150.8V41.3389L150.852 39.5459L149.452 43H149.021L147.624 39.5547L147.679 41.3389V43H147.117V38.7344H147.843ZM158.673 43H158.108V39.1973H156.004V43H155.442V38.7344H158.673V43ZM165.114 41.8867H163.327L162.925 43H162.345L163.974 38.7344H164.466L166.098 43H165.521L165.114 41.8867ZM163.497 41.4238H164.947L164.22 39.4287L163.497 41.4238ZM173.011 43H172.445V41.0283H170.295V43H169.732V38.7344H170.295V40.5684H172.445V38.7344H173.011V43ZM179.759 38.7344H180.322V43H179.759V39.7129L177.659 43H177.093V38.7344H177.659V42.0215L179.759 38.7344ZM186.64 43V41.3389H185.655L184.773 43H184.173L185.163 41.1836C184.612 40.9668 184.337 40.5791 184.337 40.0205C184.337 39.6143 184.47 39.2988 184.735 39.0742C185.003 38.8477 185.374 38.7344 185.849 38.7344H187.205V43H186.64ZM184.899 40.0205C184.899 40.2783 184.979 40.4854 185.14 40.6416C185.302 40.7979 185.526 40.877 185.813 40.8789H186.64V39.1973H185.84C185.535 39.1973 185.302 39.2695 185.14 39.4141C184.979 39.5586 184.899 39.7607 184.899 40.0205Z" fill="#1C1475"/>
</svg>
